<?xml version="1.0" encoding="iso-8859-1"?>
<!-- Generator: Adobe Illustrator 19.0.0, SVG Export Plug-In . SVG Version: 6.00 Build 0)  -->
<svg version="1.1" id="Layer_1" xmlns="http://www.w3.org/2000/svg" xmlns:xlink="http://www.w3.org/1999/xlink" x="0px" y="0px"
	 viewBox="0 0 512 512" style="enable-background:new 0 0 512 512;" xml:space="preserve">
<path style="fill:#A7CF38;" d="M406.069,150.069V79.448c0-3.059-1.585-5.901-4.186-7.51c-2.603-1.608-5.853-1.754-8.589-0.386
	L110.81,212.793c-2.94,1.465-4.879,4.615-4.879,7.896v70.621c0,3.286,1.94,6.425,4.879,7.895l282.483,141.241
	c1.246,0.623,2.599,0.932,3.948,0.932c1.614,0,3.224-0.441,4.642-1.318c2.602-1.609,4.186-4.45,4.186-7.51v-70.621
	c0-3.343-1.889-6.4-4.879-7.895L205.118,256l196.071-98.036C404.18,156.469,406.069,153.412,406.069,150.069z"/>
<path style="fill:#8BB531;" d="M114.759,150.069C56.348,150.069,8.828,197.589,8.828,256s47.52,105.931,105.931,105.931
	S220.69,314.411,220.69,256S173.17,150.069,114.759,150.069z"/>
<path style="fill:#A7CF38;" d="M114.759,176.552c-43.808,0-79.448,35.64-79.448,79.448s35.64,79.448,79.448,79.448
	s79.448-35.64,79.448-79.448S158.567,176.552,114.759,176.552z"/>
<path style="fill:#8BB531;" d="M397.241,0C338.83,0,291.31,47.52,291.31,105.931s47.52,105.931,105.931,105.931
	s105.931-47.52,105.931-105.931S455.652,0,397.241,0z"/>
<path style="fill:#A7CF38;" d="M397.241,26.483c-43.808,0-79.448,35.64-79.448,79.448s35.64,79.448,79.448,79.448
	s79.448-35.64,79.448-79.448S441.049,26.483,397.241,26.483z"/>
<path style="fill:#8BB531;" d="M397.241,300.138c-58.411,0-105.931,47.52-105.931,105.931S338.83,512,397.241,512
	s105.931-47.52,105.931-105.931S455.652,300.138,397.241,300.138z"/>
<path style="fill:#A7CF38;" d="M397.241,326.621c-43.808,0-79.448,35.64-79.448,79.448s35.64,79.448,79.448,79.448
	s79.448-35.64,79.448-79.448S441.049,326.621,397.241,326.621z"/>
<g>
</g>
<g>
</g>
<g>
</g>
<g>
</g>
<g>
</g>
<g>
</g>
<g>
</g>
<g>
</g>
<g>
</g>
<g>
</g>
<g>
</g>
<g>
</g>
<g>
</g>
<g>
</g>
<g>
</g>
</svg>
