<?xml version="1.0" encoding="iso-8859-1"?>
<!-- Generator: Adobe Illustrator 19.0.0, SVG Export Plug-In . SVG Version: 6.00 Build 0)  -->
<svg version="1.1" id="Layer_1" xmlns="http://www.w3.org/2000/svg" xmlns:xlink="http://www.w3.org/1999/xlink" x="0px" y="0px"
	 viewBox="0 0 511.999 511.999" style="enable-background:new 0 0 511.999 511.999;" xml:space="preserve">
<path style="fill:#E5E5E5;" d="M482.711,284.619c1.19-9.509,1.793-19.12,1.793-28.62c0-61.036-23.769-118.418-66.927-161.578
	C374.418,51.265,317.036,27.495,256,27.495c-21.392,0-42.557,2.96-62.973,8.803c-19.718-11.766-42.224-17.968-65.343-17.968
	C57.279,18.331,0,75.609,0,146.014c0,29.773,10.373,58.511,29.289,81.365c-1.19,9.507-1.793,19.117-1.793,28.62
	c0,61.036,23.769,118.418,66.927,161.578c43.158,43.158,100.541,66.927,161.577,66.927c21.393,0,42.557-2.96,62.973-8.803
	c19.718,11.767,42.224,17.968,65.343,17.968c70.405,0,127.684-57.278,127.684-127.683C512,336.212,501.627,307.475,482.711,284.619z
	"/>
<path style="fill:#CCCCCC;" d="M401.382,469.333c-23.119,0-45.623-6.201-65.343-17.968c-20.416,5.843-41.58,8.803-62.973,8.803
	c-61.036,0-118.418-23.769-161.577-66.927c-43.158-43.159-66.927-100.542-66.927-161.578c0-9.503,0.603-19.113,1.793-28.62
	c-18.916-22.854-29.29-51.593-29.29-81.365c0-21.863,5.526-42.458,15.251-60.467C12.227,83.78,0,113.493,0,146.014
	c0,29.773,10.373,58.511,29.289,81.365c-1.19,9.507-1.793,19.117-1.793,28.62c0,61.036,23.769,118.418,66.927,161.578
	c43.158,43.158,100.541,66.927,161.577,66.927c21.393,0,42.557-2.96,62.973-8.803c19.718,11.767,42.224,17.968,65.343,17.968
	c48.543,0,90.842-27.231,112.433-67.217C473.344,452.742,439.267,469.333,401.382,469.333z"/>
<path style="fill:#3CCFE6;" d="M318.823,253.998c-16.982-11.986-37.403-19.193-57.15-26.162
	c-41.791-14.75-52.607-22.119-52.607-35.837c0-24.686,25.522-29.867,46.933-29.867c11.964,0,34.895,5.483,42.857,11.306
	c13.289,9.721,32.015,6.818,41.739-6.473c9.723-13.292,6.819-32.016-6.474-41.74c-21.525-15.744-58.641-22.827-78.122-22.827
	c-31.358,0-57.888,8.295-76.72,23.989c-19.311,16.093-29.947,39.394-29.947,65.611c0,27.257,11.879,49.461,35.31,66.001
	c16.983,11.987,37.403,19.194,57.15,26.162c41.79,14.75,52.607,22.119,52.607,35.837c0,24.686-20.882,29.867-38.4,29.867
	c-24.222,0-45.552-11.62-50.194-17.849c-4.767-6.397-11.74-10.555-19.633-11.708c-7.893-1.152-15.765,0.838-22.161,5.605
	c-13.205,9.842-15.942,28.591-6.101,41.796c18.087,24.271,59.341,41.888,98.09,41.888c28.446,0,52.867-8.492,70.623-24.556
	c17.997-16.284,27.51-38.775,27.51-65.044C354.133,292.743,342.253,270.538,318.823,253.998z"/>
<g>
	<path style="fill:#2EC2D9;" d="M184.643,258.001c16.983,11.987,37.403,19.194,57.15,26.162
		c41.007,14.474,52.182,21.844,52.588,35.076c2.683-4.147,4.286-9.477,4.286-16.306c0-13.717-10.817-21.087-52.607-35.837
		c-19.747-6.969-40.166-14.175-57.15-26.162c-23.43-16.54-35.31-38.745-35.31-66.001c0-4.569,0.331-9.046,0.966-13.415
		c-3.442,9.473-5.233,19.732-5.233,30.482C149.333,219.256,161.213,241.461,184.643,258.001z"/>
	<path style="fill:#2EC2D9;" d="M330.89,367.977c-17.756,16.064-42.177,24.556-70.623,24.556c-38.749,0-80.002-17.617-98.09-41.889
		c-3.65-4.898-5.566-10.558-5.862-16.244c-6.09,10.09-5.869,23.294,1.596,33.311c18.087,24.272,59.341,41.889,98.09,41.889
		c28.446,0,52.867-8.492,70.623-24.556c14.457-13.081,23.425-30.173,26.4-50.004C348.451,347.694,341.012,358.818,330.89,367.977z"
		/>
</g>
<g>
</g>
<g>
</g>
<g>
</g>
<g>
</g>
<g>
</g>
<g>
</g>
<g>
</g>
<g>
</g>
<g>
</g>
<g>
</g>
<g>
</g>
<g>
</g>
<g>
</g>
<g>
</g>
<g>
</g>
</svg>
